<svg width="27" height="42" viewBox="0 0 27 42" fill="none" xmlns="http://www.w3.org/2000/svg">
<path d="M15.1811 1.4502C17.3887 1.51686 19.0698 2.23353 20.2245 3.60019C21.2434 4.76686 21.7528 6.28353 21.7528 8.15019V8.80019L22.2622 9.85019H25.6755V23.4502C25.6755 25.7835 24.8604 28.4335 23.2302 31.4002C21.0905 35.2335 18.1188 38.2169 14.3151 40.3502L14.1113 40.6002H13.1943L12.9905 40.3502C9.18677 38.2169 6.21507 35.2335 4.07545 31.4002C2.4113 28.4335 1.57922 25.7835 1.57922 23.4502V9.85019H3.82073L5.50187 7.25019L5.19621 6.95019L6.57168 5.30019C8.88111 2.73353 11.683 1.4502 14.9773 1.4502H15.1811ZM15.1811 7.30019L15.1302 7.25019L13.5 5.90019L14.1113 8.65019L14.1622 8.80019C14.2641 9.23353 14.6377 9.50019 15.283 9.60019L15.8434 9.75019L15.283 9.90019C14.4 10.1669 13.8905 10.4669 13.7547 10.8002C13.6188 11.2002 13.5339 12.0335 13.5 13.3002C13.466 14.7335 13.6188 15.6169 13.9585 15.9502L16.4038 16.7502C17.8981 17.2835 18.6962 17.6835 18.7981 17.9502L18.7471 18.8502C18.6792 19.1835 18.6962 19.4169 18.7981 19.5502L19.5622 20.7002C19.8 20.8335 20.2415 20.7669 20.8868 20.5002L19.9188 19.1002L19.766 18.8002C19.6302 18.5002 19.7321 18.2169 20.0717 17.9502L20.7849 17.8502L21.1415 19.2502C21.3453 20.1169 21.5151 20.5835 21.6509 20.6502H21.8547L22.8226 20.5002C23.2302 20.3669 23.366 19.7669 23.2302 18.7002V18.6502C23.366 18.6502 23.4339 18.3835 23.4339 17.8502L19.7151 9.65019C19.3415 9.05019 18.6453 8.50019 17.6264 8.00019C16.6415 7.50019 15.8434 7.26686 15.2321 7.30019H15.1811ZM17.6773 6.95019C18.3226 7.25019 19.0019 7.75019 19.7151 8.45019C19.7151 7.15019 19.3755 6.08353 18.6962 5.25019C17.949 4.38353 16.8113 3.91686 15.283 3.85019C12.6339 3.81686 10.3075 4.88353 8.30375 7.05019L7.69243 7.75019C8.64337 6.88353 9.81507 6.13353 11.2075 5.50019C12.6679 4.90019 13.8396 4.88353 14.7226 5.45019C15.266 5.78353 15.6056 6.23353 15.7415 6.80019L16.3528 6.70019L17.6773 6.95019ZM19.3585 11.2002L21.0905 14.9502H20.7339L19.1038 12.5002L18.1868 12.3502C17.5415 12.0835 17.1849 11.5335 17.117 10.7002C16.5396 10.0002 16.3528 9.36686 16.5566 8.80019L16.7094 9.40019C16.8792 9.83353 17.083 10.1502 17.3207 10.3502C17.5585 10.5502 17.9151 10.6835 18.3905 10.7502H19.1038C19.3075 10.7169 19.3924 10.8669 19.3585 11.2002ZM11.9207 8.10019L10.1377 10.5002C9.28866 12.5669 9.66224 14.7835 11.2585 17.1502C10.2396 16.2169 9.47545 15.0169 8.96602 13.5502C8.66036 12.6502 8.64337 11.5669 8.91507 10.3002L9.42451 8.65019C10.0358 8.35019 10.6302 8.16686 11.2075 8.10019H11.9207ZM13.1943 5.75019C9.73017 6.15019 7.19998 8.10019 5.60375 11.6002C4.78866 13.4002 4.2962 15.2502 4.12639 17.1502C5.41696 18.6169 7.31885 19.7335 9.83205 20.5002C12.583 21.3669 14.2811 22.0669 14.9264 22.6002C15.6736 23.2669 16.3528 24.1002 16.9641 25.1002L17.7283 26.9002C17.9321 25.7335 17.3547 23.8669 15.9962 21.3002C14.8755 19.2335 14.7905 17.9002 15.7415 17.3002C14.383 17.2002 13.517 16.8835 13.1434 16.3502C12.7698 15.8169 12.617 14.6502 12.6849 12.8502C12.7528 10.9169 13.1434 9.88353 13.8566 9.75019C13.5509 9.11686 13.3132 8.38353 13.1434 7.55019C12.9736 6.65019 12.9905 6.05019 13.1943 5.75019ZM5.50187 31.7502H21.8038L22.4151 30.6502L23.3321 28.8002H4.02451L4.89054 30.6502L5.50187 31.7502Z" fill="black"/>
<path d="M15.0792 0C17.7283 0.0666667 19.783 0.966667 21.2434 2.7C22.466 4.2 23.0774 6 23.0774 8.1V8.4H27V23.45C27 25.95 26.134 28.7833 24.4019 31.95C22.1943 36.0167 19.0868 39.2 15.0792 41.5L14.5698 42H12.4302L11.9208 41.5C7.94717 39.2 4.83962 36.0167 2.59811 31.95C0.866038 28.75 0 25.9167 0 23.45V8.4H2.80189L3.41321 7.45L3.10755 7.15L5.34906 4.35C7.99811 1.45 11.1566 0 14.8245 0H15.0792ZM14.9774 1.45C11.683 1.45 8.88113 2.73333 6.5717 5.3L5.19623 6.95L5.50189 7.25L3.82076 9.85H1.57925V23.45C1.57925 25.7833 2.41132 28.4333 4.07547 31.4C6.21509 35.2333 9.18679 38.2167 12.9906 40.35L13.1943 40.6H14.1113L14.3151 40.35C18.1189 38.2167 21.0906 35.2333 23.2302 31.4C24.8604 28.4333 25.6755 25.7833 25.6755 23.45V9.85H22.2623L21.7528 8.8V8.15C21.7528 6.28333 21.2434 4.76667 20.2245 3.6C19.0698 2.23333 17.3887 1.51667 15.1811 1.45H14.9774ZM15.2321 7.3C15.8434 7.26667 16.6415 7.5 17.6264 8C18.6453 8.5 19.3415 9.05 19.7151 9.65L23.434 17.85C23.434 18.3833 23.366 18.65 23.2302 18.65V18.7C23.366 19.7667 23.2302 20.3667 22.8226 20.5L21.8547 20.65H21.6509C21.5151 20.5833 21.3453 20.1167 21.1415 19.25L20.7849 17.85L20.0717 17.95C19.7321 18.2167 19.6302 18.5 19.766 18.8L19.9189 19.1L20.8868 20.5C20.2415 20.7667 19.8 20.8333 19.5623 20.7L18.7981 19.55C18.6962 19.4167 18.6792 19.1833 18.7472 18.85L18.7981 17.95C18.6962 17.6833 17.8981 17.2833 16.4038 16.75L13.9585 15.95C13.6189 15.6167 13.466 14.7333 13.5 13.3C13.534 12.0333 13.6189 11.2 13.7547 10.8C13.8906 10.4667 14.4 10.1667 15.283 9.9L15.8434 9.75L15.283 9.6C14.6377 9.5 14.2642 9.23333 14.1623 8.8L14.1113 8.65L13.5 5.9L15.1302 7.25L15.1811 7.3H15.2321ZM16.3528 6.7L15.7415 6.8C15.6057 6.23333 15.266 5.78333 14.7226 5.45C13.8396 4.88333 12.6679 4.9 11.2075 5.5C9.81509 6.13333 8.6434 6.88333 7.69245 7.75L8.30377 7.05C10.3075 4.88333 12.634 3.81667 15.283 3.85C16.8113 3.91667 17.9491 4.38333 18.6962 5.25C19.3755 6.08333 19.7151 7.15 19.7151 8.45C19.0019 7.75 18.3226 7.25 17.6774 6.95L16.3528 6.7ZM19.1038 10.75H18.3906C17.9151 10.6833 17.5585 10.55 17.3208 10.35C17.083 10.15 16.8792 9.83333 16.7094 9.4L16.5566 8.8C16.3528 9.36667 16.5396 10 17.117 10.7C17.1849 11.5333 17.5415 12.0833 18.1868 12.35L19.1038 12.5L20.734 14.95H21.0906L19.3585 11.2C19.3925 10.8667 19.3075 10.7167 19.1038 10.75ZM11.2075 8.1C10.6302 8.16667 10.0358 8.35 9.42453 8.65L8.91509 10.3C8.6434 11.5667 8.66038 12.65 8.96604 13.55C9.47547 15.0167 10.2396 16.2167 11.2585 17.15C9.66226 14.7833 9.28868 12.5667 10.1377 10.5L11.9208 8.1H11.2075ZM13.1434 7.55C13.3132 8.38333 13.5509 9.11667 13.8566 9.75C13.1434 9.88333 12.7528 10.9167 12.6849 12.85C12.617 14.65 12.7698 15.8167 13.1434 16.35C13.517 16.8833 14.383 17.2 15.7415 17.3C14.7906 17.9 14.8755 19.2333 15.9962 21.3C17.3547 23.8667 17.9321 25.7333 17.7283 26.9L16.9642 25.1C16.3528 24.1 15.6736 23.2667 14.9264 22.6C14.2811 22.0667 12.583 21.3667 9.83208 20.5C7.31887 19.7333 5.41698 18.6167 4.12642 17.15C4.29623 15.25 4.78868 13.4 5.60377 11.6C7.2 8.1 9.73019 6.15 13.1943 5.75C12.9906 6.05 12.9736 6.65 13.1434 7.55ZM4.89057 30.65L4.02453 28.8H23.3321L22.4151 30.65L21.8038 31.75H5.50189L4.89057 30.65Z" fill="white"/>
</svg>
