<svg width="29" height="36" viewBox="0 0 29 36" fill="none" xmlns="http://www.w3.org/2000/svg">
<path d="M14.3682 2.87128L14.1045 2.95699L13.5333 4.02842L13.006 5.61413L12.3909 8.18556C11.8636 8.61413 11.6 9.17128 11.6 9.85699L11.9954 11.357C11.556 12.0141 11.5121 12.7856 11.8636 13.6713L10.7651 15.4713L9.88635 17.0998L9.66665 17.2713L9.62271 17.3141L9.18332 17.3998C9.00756 17.3998 8.8611 17.3284 8.74393 17.1856L8.56817 16.9713L8.26059 16.3713C8.55352 15.857 8.69999 15.357 8.69999 14.8713C8.69999 14.1856 8.43635 13.6284 7.90908 13.1998L7.29393 10.6284L6.76665 9.0427C6.5616 8.4427 6.3712 8.08556 6.19544 7.97128L6.06362 7.88556H5.93181L5.62423 7.97128L5.05302 9.0427L4.08635 12.2998L3.91059 13.2427L3.4712 13.7998C3.00251 14.6284 2.97322 15.457 3.38332 16.2856C3.11968 16.7713 3.00251 17.257 3.0318 17.7427V17.7856L3.07574 17.9141L3.11968 17.957L5.44847 21.9427L5.58029 22.1141L5.84393 22.2856L5.88787 22.2427L10.0621 21.3856H10.106L10.4136 21.3427L14.3682 20.9998C16.5944 20.9998 19.304 21.3998 22.497 22.1998L22.7167 22.2427L22.7606 22.2856L23.0242 22.1141L23.156 21.9427L25.4848 17.957L25.5288 17.9141L25.5727 17.7856V17.7427C25.6313 17.257 25.5141 16.7713 25.2212 16.2856C25.6313 15.457 25.602 14.6284 25.1333 13.7998L24.6939 13.2427L24.4742 12.2998L23.5515 9.0427L22.9803 7.97128L22.6727 7.88556H22.5409L22.4091 7.97128C22.2333 8.08556 22.0429 8.4427 21.8379 9.0427L21.3106 10.6284L20.6954 13.1998C20.1682 13.6284 19.9045 14.1856 19.9045 14.8713C19.9045 15.2998 20.0364 15.7998 20.3 16.3713L20.0364 16.9713L19.8606 17.1856C19.7434 17.3284 19.597 17.3998 19.4212 17.3998C19.099 17.3998 18.4106 16.3713 17.356 14.3141L16.9167 13.6284C17.3853 12.9427 17.4 12.1856 16.9606 11.357L16.9167 11.2713C17.3268 10.4427 17.2975 9.61413 16.8288 8.78556L16.3894 8.22842L15.247 4.02842L14.6757 2.95699L14.3682 2.87128ZM16.3894 17.1427L14.2803 20.3998L12.2151 17.1427L14.2803 13.8856L16.3894 17.1427ZM26.8909 15.9856C26.8909 18.3284 26.056 21.0713 24.3863 24.2141C22.0722 28.557 18.7182 31.9427 14.3242 34.3713H14.2803C9.88635 31.9427 6.53231 28.557 4.21817 24.2141C2.54847 21.0713 1.71362 18.3284 1.71362 15.9856V1.62842H26.8909V15.9856ZM14.2803 23.5713L12.2151 26.7856L14.2803 30.0427L16.3894 26.7856L14.2803 23.5713Z" fill="black"/>
<path d="M14.6758 2.95714L15.247 4.02857L16.3894 8.22857L16.8288 8.78571C17.2975 9.61429 17.3268 10.4429 16.9167 11.2714L16.9606 11.3571C17.4 12.1857 17.3854 12.9429 16.9167 13.6286L17.3561 14.3143C18.4106 16.3714 19.099 17.4 19.4212 17.4C19.597 17.4 19.7434 17.3286 19.8606 17.1857L20.0364 16.9714L20.3 16.3714C20.0364 15.8 19.9045 15.3 19.9045 14.8714C19.9045 14.1857 20.1682 13.6286 20.6955 13.2L21.3106 10.6286L21.8379 9.04286C22.0429 8.44286 22.2333 8.08571 22.4091 7.97143L22.5409 7.88571H22.6727L22.9803 7.97143L23.5515 9.04286L24.4742 12.3L24.6939 13.2429L25.1333 13.8C25.602 14.6286 25.6313 15.4571 25.2212 16.2857C25.5141 16.7714 25.6313 17.2571 25.5727 17.7429V17.7857L25.5288 17.9143L25.4848 17.9571L23.1561 21.9429L23.0242 22.1143L22.7606 22.2857L22.7167 22.2429L22.497 22.2C19.304 21.4 16.5944 21 14.3682 21L10.4136 21.3429L10.1061 21.3857H10.0621L5.88788 22.2429L5.84394 22.2857L5.5803 22.1143L5.44848 21.9429L3.1197 17.9571L3.07576 17.9143L3.03182 17.7857V17.7429C3.00253 17.2571 3.1197 16.7714 3.38333 16.2857C2.97323 15.4571 3.00253 14.6286 3.47121 13.8L3.91061 13.2429L4.08636 12.3L5.05303 9.04286L5.62424 7.97143L5.93182 7.88571H6.06364L6.19545 7.97143C6.37121 8.08571 6.56162 8.44286 6.76667 9.04286L7.29394 10.6286L7.90909 13.2C8.43636 13.6286 8.7 14.1857 8.7 14.8714C8.7 15.3571 8.55354 15.8571 8.26061 16.3714L8.56818 16.9714L8.74394 17.1857C8.86111 17.3286 9.00758 17.4 9.18333 17.4L9.62273 17.3143L9.66667 17.2714L9.88636 17.1L10.7652 15.4714L11.8636 13.6714C11.5121 12.7857 11.5561 12.0143 11.9955 11.3571L11.6 9.85714C11.6 9.17143 11.8636 8.61429 12.3909 8.18571L13.0061 5.61429L13.5333 4.02857L14.1045 2.95714L14.3682 2.87143L14.6758 2.95714ZM14.2803 13.8857L12.2152 17.1429L14.2803 20.4L16.3894 17.1429L14.2803 13.8857ZM26.8909 1.62857H1.71364V15.9857C1.71364 18.3286 2.54849 21.0714 4.21818 24.2143C6.53232 28.5571 9.88636 31.9429 14.2803 34.3714H14.3242C18.7182 31.9429 22.0722 28.5571 24.3864 24.2143C26.0561 21.0714 26.8909 18.3286 26.8909 15.9857V1.62857ZM28.6045 15.9857C28.6045 18.5571 27.7404 21.4857 26.0121 24.7714C23.6101 29.4 20.051 33.0286 15.3348 35.6571L14.9833 36H13.5773L13.2697 35.6571C8.58283 33.0286 5.02374 29.4 2.59242 24.7714C0.864141 21.4857 0 18.5571 0 15.9857V0H28.6045V15.9857ZM16.3894 26.7857L14.2803 30.0429L12.2152 26.7857L14.2803 23.5714L16.3894 26.7857Z" fill="white"/>
</svg>
